<svg width="14" height="20" viewBox="0 0 14 20" fill="none" xmlns="http://www.w3.org/2000/svg">
<path d="M0.3669 9.38385C0.480099 9.26274 0.616979 9.16618 0.769047 9.10016C0.921115 9.03415 1.08513 9.00008 1.25091 9.00008C1.41669 9.00008 1.5807 9.03415 1.73277 9.10016C1.88483 9.16618 2.02171 9.26274 2.13491 9.38385C4.81793 12.1898 9.18396 12.1898 11.865 9.38385C11.9782 9.26242 12.1152 9.16559 12.2675 9.09939C12.4197 9.03318 12.584 8.99901 12.75 8.99901C12.916 8.99901 13.0803 9.03318 13.2325 9.09939C13.3848 9.16559 13.5218 9.26242 13.635 9.38385C14.122 9.89585 14.122 10.7238 13.633 11.2358C12.1624 12.7891 10.1947 13.7789 8.07096 14.0338L11.637 17.7657C11.8725 18.0161 12.0037 18.3469 12.0037 18.6907C12.0037 19.0345 11.8725 19.3653 11.637 19.6157C11.5233 19.7365 11.3862 19.8329 11.234 19.8989C11.0819 19.9649 10.9178 19.9992 10.752 19.9997C10.432 19.9997 10.112 19.8707 9.86797 19.6157L6.99995 16.6157L4.13193 19.6157C4.01872 19.737 3.88178 19.8337 3.72962 19.8998C3.57746 19.9659 3.41332 20 3.24742 20C3.08152 20 2.91739 19.9659 2.76523 19.8998C2.61306 19.8337 2.47612 19.737 2.36291 19.6157C2.12736 19.3653 1.99621 19.0345 1.99621 18.6907C1.99621 18.3469 2.12736 18.0161 2.36291 17.7657L5.92894 14.0338C3.80518 13.7789 1.8375 12.7891 0.3669 11.2358C0.131213 10.9851 0 10.6539 0 10.3098C0 9.96573 0.131213 9.63458 0.3669 9.38385ZM6.99995 0C9.75797 0 12 2.24197 12 4.99992C12 7.75788 9.75797 9.99984 6.99995 9.99984C4.24193 9.99984 1.99991 7.75788 1.99991 4.99992C1.99991 2.24197 4.24193 0 6.99995 0ZM6.99995 2.49996C6.33715 2.50075 5.70172 2.7644 5.23305 3.23306C4.76437 3.70172 4.50072 4.33713 4.49993 4.99992C4.49993 6.3789 5.62094 7.49988 6.99995 7.49988C8.37896 7.49988 9.49997 6.3789 9.49997 4.99992C9.49997 3.62094 8.37896 2.49996 6.99995 2.49996Z" fill="#333333"/>
</svg>
