<svg width="94" height="25" viewBox="0 0 94 25" fill="none" xmlns="http://www.w3.org/2000/svg">
<path fill-rule="evenodd" clip-rule="evenodd" d="M60.5336 24.5102H60.0796L60.0669 24.4857C59.9403 24.2645 59.9418 23.9696 59.9434 23.656L59.9435 23.6494L59.9435 23.6423C59.9468 23.2513 59.9501 22.8523 59.6974 22.6157C59.5235 22.4424 59.2447 22.3592 58.8411 22.3592H57.1695V24.5102H56.773V19.6807H58.8411C59.875 19.6807 60.4221 20.1217 60.4221 20.9496C60.4221 21.5478 60.0968 21.9985 59.5457 22.1658C60.2851 22.3487 60.3482 22.9743 60.3482 23.5569V23.6036C60.3466 23.9469 60.3466 24.2714 60.4668 24.4306L60.5336 24.5102ZM29.0373 24.6393C29.0373 24.6393 29.059 24.6409 29.0971 24.6409C29.285 24.6409 29.9169 24.6111 30.261 24.2324C30.3787 24.099 30.4635 23.9407 30.5087 23.77C30.5591 23.6031 30.5838 23.4118 30.5838 23.2059V19.6811H30.1892V23.1094C30.1892 23.3374 30.1646 23.5288 30.1183 23.6795C30.0691 23.8408 30.0096 23.9473 29.9305 24.0169C29.6521 24.2576 29.2361 24.2675 29.0485 24.272L29.041 24.2722H28.9999C28.6255 24.2722 28.2913 24.1717 28.1293 24.0112C27.9685 23.8516 27.8877 23.5991 27.8877 23.2586V22.8513H27.4883V23.2586C27.4873 23.4398 27.5127 23.6203 27.5638 23.7945C27.6183 23.9759 27.6983 24.1218 27.8053 24.2396C27.8648 24.3063 28.2084 24.6393 29.0373 24.6393ZM32.9766 24.5114H36.3562V24.1624H33.3723V22.1799H36.1454V21.8313H33.3723V20.0321H36.3213V19.6831H32.9766V24.5114ZM42.8426 24.5114H42.4333L42.43 24.4982L41.1357 20.1366L39.8644 24.5114H39.458L39.4535 24.4982L38.0391 19.6831H38.4426L38.4455 19.696L39.6721 23.9952L40.9159 19.6831H41.3625L41.367 19.6944L42.6326 23.9952L43.8379 19.6831H44.2599L42.8426 24.5114ZM46.2461 24.5114H49.6188V24.1624H46.6427V22.1799H49.4215V21.8313H46.6427V20.0321H49.5851V19.6831H46.2461V24.5114ZM55.0068 24.5114H51.8662V19.6831H52.2628V24.1624H55.0068V24.5114ZM58.8427 22.0128H57.1711V20.0338H58.8427C59.199 20.0338 60.0274 20.1259 60.0274 20.9722C60.0274 21.8785 59.2856 22.0128 58.8427 22.0128ZM63.9803 24.5114H64.3785L64.3736 22.5047L66.3376 19.71L66.3568 19.6831H65.9156L64.1862 22.1517L62.465 19.6831H62.0044L63.9803 22.4935V24.5114Z" fill="white"/>
<path fill-rule="evenodd" clip-rule="evenodd" d="M24.6451 2.39071C25.1676 3.01994 25.5715 3.76937 25.8463 4.61812C26.1166 5.45481 26.2535 6.3518 26.2535 7.28418C26.2535 8.21776 26.1166 9.11515 25.8463 9.95144C25.5699 10.8038 25.1659 11.5528 24.6451 12.1784C24.1069 12.8222 23.4299 13.341 22.6627 13.6974C21.8794 14.0669 20.9665 14.2543 19.9499 14.2543C18.9275 14.2543 18.0142 14.0669 17.2346 13.697C16.4447 13.3271 15.7779 12.8157 15.2534 12.1772C14.7277 11.5476 14.3212 10.7982 14.0473 9.95184C13.777 9.11998 13.6401 8.22218 13.6401 7.28377C13.6401 6.34698 13.777 5.44998 14.0473 4.61772C14.3196 3.7746 14.7256 3.02556 15.2546 2.39031C15.7763 1.75466 16.4427 1.23962 17.2342 0.861682C18.0171 0.486561 18.9308 0.296387 19.9499 0.296387C20.9628 0.296387 21.8761 0.486561 22.6652 0.861682C23.4497 1.24042 24.1157 1.75466 24.6451 2.39071ZM17.7094 12.8797C18.3569 13.1772 19.1057 13.3276 19.9366 13.3276C20.7617 13.3276 21.511 13.1768 22.1639 12.8805C22.8021 12.5936 23.3673 12.1713 23.8186 11.6442C24.2734 11.1167 24.6302 10.4754 24.8804 9.73759C25.1273 8.98654 25.2589 8.16071 25.2708 7.28462C25.2589 6.41778 25.1273 5.59356 24.8796 4.8401C24.6286 4.09991 24.2718 3.45902 23.8195 2.93755C23.3737 2.41568 22.8163 1.99874 22.1622 1.6972C21.5085 1.40088 20.7593 1.25011 19.9366 1.25011C19.107 1.25011 18.3577 1.40048 17.7106 1.6972C17.0528 1.99713 16.4934 2.41407 16.0472 2.93635C15.5961 3.46465 15.2422 4.10554 14.9945 4.8413C14.7423 5.58471 14.6082 6.40934 14.5967 7.29186C14.6086 8.16996 14.7423 8.99418 14.9945 9.73719C15.2405 10.4697 15.5949 11.111 16.0476 11.6442C16.5006 12.1724 17.0684 12.5945 17.7094 12.8797ZM53.4712 4.61909C53.2017 3.7816 52.7962 3.03256 52.2659 2.39128C51.7344 1.75401 51.0659 1.23938 50.2781 0.862245C49.4879 0.487124 48.5766 0.297352 47.569 0.297352C46.5507 0.297352 45.637 0.487526 44.8541 0.862647C44.068 1.23897 43.3995 1.75321 42.866 2.39248C42.3423 3.03095 41.9387 3.77999 41.6672 4.61909C41.3958 5.45899 41.2584 6.35598 41.2584 7.28474C41.2584 8.2151 41.3958 9.1125 41.6672 9.952C41.9383 10.7919 42.3419 11.5409 42.8668 12.1794C43.4062 12.8244 44.0858 13.3432 44.8558 13.698C45.6341 14.0675 46.547 14.2552 47.569 14.2552C48.5811 14.2552 49.4924 14.0679 50.2773 13.6984C51.0475 13.3437 51.727 12.8247 52.2663 12.1794C52.7945 11.5438 53.2001 10.7947 53.4716 9.95361C53.7418 9.12416 53.8792 8.22636 53.8792 7.28514C53.8788 6.34472 53.7414 5.44773 53.4712 4.61909ZM52.5288 9.7367C52.7802 8.99129 52.9138 8.16586 52.9249 7.28374C52.9134 6.40966 52.7802 5.58584 52.5288 4.84082C52.2794 4.10143 51.9222 3.46095 51.4682 2.93667C51.0245 2.4152 50.4651 1.99826 49.8053 1.69671C49.1512 1.4004 48.404 1.24962 47.585 1.24962C46.7562 1.24962 46.0069 1.39999 45.3582 1.69671C44.7182 1.98466 44.1512 2.40782 43.6977 2.93586C43.249 3.45331 42.8943 4.0942 42.6421 4.84082C42.3911 5.58463 42.2574 6.40926 42.2459 7.29178C42.2578 8.16867 42.3911 8.99289 42.6421 9.7367C42.8943 10.4817 43.249 11.123 43.6973 11.6425C44.1494 12.1711 44.7167 12.5937 45.3573 12.8792C46.0073 13.1763 46.7562 13.3271 47.585 13.3271C48.4052 13.3271 49.1524 13.1763 49.8053 12.8796C50.4463 12.5947 51.0142 12.1727 51.467 11.6445C51.9222 11.1146 52.2798 10.4729 52.5288 9.7367ZM58.2803 13.0226V0.606564H57.3083V13.9734H65.8876V13.0226H58.2803ZM78.3537 2.39031C78.8836 3.032 79.2887 3.78104 79.559 4.61813C79.8292 5.44718 79.9666 6.34417 79.9662 7.28298C79.9662 8.2242 79.8288 9.122 79.5586 9.95145C79.2867 10.7918 78.8811 11.5408 78.3533 12.1773C77.8147 12.8212 77.1373 13.3401 76.3696 13.6966C75.5909 14.0661 74.6772 14.2535 73.6552 14.2535C72.6295 14.2535 71.7179 14.0657 70.9452 13.6958C70.1599 13.3288 69.491 12.8177 68.9583 12.1777C68.4325 11.5468 68.0274 10.7974 67.753 9.95065C67.4819 9.11557 67.3441 8.21817 67.3441 7.28338C67.3441 6.34859 67.4823 5.4516 67.7542 4.61732C68.0253 3.77782 68.4301 3.02838 68.9587 2.39072C69.4881 1.75426 70.1566 1.23962 70.9456 0.861683C71.7224 0.486561 72.6344 0.296387 73.6556 0.296387C74.6755 0.296387 75.5896 0.486561 76.3717 0.861683C77.157 1.24002 77.8234 1.75426 78.3537 2.39031ZM73.6759 13.3274C72.8425 13.3274 72.0953 13.177 71.4535 12.8795C70.813 12.5939 70.2459 12.1713 69.7938 11.6427C69.3386 11.1144 68.9814 10.4732 68.7321 9.73779C68.4815 8.99639 68.3478 8.17177 68.3359 7.29247C68.3478 6.40713 68.4811 5.58251 68.7321 4.84111C68.9827 4.10052 69.3399 3.45963 69.7947 2.93575C70.2388 2.41468 70.7974 1.99774 71.4548 1.6966C72.0978 1.39988 72.8454 1.24951 73.6759 1.24951C74.5039 1.24951 75.2556 1.40028 75.9085 1.6962C76.5449 1.98694 77.109 2.41022 77.5616 2.93655C78.011 3.45642 78.3674 4.0973 78.6205 4.84071C78.871 5.58291 79.0043 6.40673 79.0158 7.28362C79.0043 8.16855 78.8706 8.99398 78.6205 9.73659C78.3719 10.4728 78.0151 11.114 77.5608 11.6427C77.1091 12.168 76.5457 12.5901 75.9101 12.8795C75.2568 13.1766 74.5051 13.3274 73.6759 13.3274ZM88.0532 12.4348L92.6513 0.607046H93.6523L88.4695 13.9735H87.6513L82.3196 0.607046H83.3129L88.0532 12.4348ZM40.61 13.9767L30.937 7.07772L40.2623 0.606564H38.6744L30.4477 6.28485V0.606564H29.4774V13.9742H30.4477L30.4432 7.87942L39.1021 13.9767H40.61ZM9.32045 7.75066C9.75927 8.00631 10.1252 8.36642 10.3842 8.79762C10.6492 9.23587 10.7837 9.82207 10.7837 10.5406C10.7837 11.2003 10.6328 11.7769 10.3354 12.2541C10.0449 12.7183 9.65287 13.1134 9.18757 13.4109C8.70434 13.7165 8.17025 13.9368 7.60951 14.0618C7.0329 14.1896 6.45179 14.2544 5.88134 14.2544C5.10584 14.2544 4.38816 14.1675 3.74841 13.9967C3.07994 13.8177 2.49514 13.5295 2.00917 13.1399C1.51992 12.7499 1.13566 12.2409 0.86786 11.6273C0.695208 11.2321 0.579149 10.7585 0.522966 10.2197L0.5 9.99817H1.48055L1.5027 10.1743C1.55601 10.5948 1.64869 10.9595 1.77828 11.257C1.99072 11.7439 2.28845 12.1432 2.66369 12.4431C3.05165 12.7467 3.51957 12.9714 4.05229 13.1105C4.59896 13.2516 5.21411 13.3236 5.88052 13.3236C6.36962 13.3237 6.85712 13.269 7.33351 13.1604C7.78337 13.0631 8.21293 12.8911 8.60359 12.6518C8.96038 12.431 9.26087 12.1331 9.48203 11.7809C9.70061 11.4359 9.81134 11.0122 9.81134 10.5217C9.81134 9.9455 9.68749 9.49238 9.44225 9.17435C9.18231 8.83213 8.84443 8.55416 8.45554 8.36259C8.03232 8.15553 7.55742 7.99551 7.04562 7.88816C6.52397 7.7776 4.46444 7.30116 3.90671 7.15883C3.38694 7.03382 2.88636 6.84184 2.41804 6.5879C1.96657 6.3392 1.58403 5.98597 1.3038 5.55903C1.01591 5.12682 0.869911 4.56273 0.869911 3.88405C0.869911 3.19934 1.02042 2.61395 1.31774 2.14474C1.61588 1.67674 1.99892 1.30363 2.45618 1.03546C2.90442 0.771306 3.41951 0.579122 3.98709 0.464535C4.52801 0.35437 5.08944 0.299288 5.64143 0.298082C6.28242 0.296876 6.91069 0.368844 7.47827 0.513184C8.06185 0.661544 8.57816 0.900367 9.01328 1.22403C9.45783 1.56176 9.81462 2.00121 10.075 2.53112C10.2161 2.82141 10.3285 3.16436 10.4093 3.55155L10.4597 3.79278H9.48572L9.45004 3.63518C9.39385 3.3867 9.31265 3.15713 9.21013 2.95248C9.01082 2.54881 8.74056 2.21591 8.40633 1.96261C8.07374 1.71172 7.66569 1.52758 7.19407 1.41581C6.68511 1.29889 6.16376 1.24179 5.64102 1.24574C5.1835 1.24846 4.72714 1.29138 4.27744 1.37399C3.84473 1.45069 3.42862 1.59945 3.04714 1.81385C2.69434 2.01586 2.39288 2.29368 2.16542 2.62641C1.95012 2.95449 1.8398 3.37866 1.8398 3.88405C1.8398 4.38783 1.95053 4.79311 2.1687 5.08822C2.39918 5.39218 2.71003 5.64588 3.09061 5.83967C3.48102 6.0403 3.93746 6.20072 4.44886 6.31732C4.98445 6.43753 7.28676 6.9976 7.82973 7.14315C8.39936 7.29311 8.90132 7.49736 9.32045 7.75066Z" fill="white"/>
</svg>
